# xmcd
#
# Track frame offsets: 
#        150
#        14900
#        35587
#        55137
#        77130
#        101287
#        121350
#        136637
#        158962
#        181647
#        195387
#        212812
#        242525
#
# Disc length: 3512 seconds
#
# Revision: 1
# Processed by: cddbd v1.5.2PL0 Copyright (c) Steve Scherf et al.
# Submitted via: ExactAudioCopy v1.0b3
#
DISCID=a40db60d
DTITLE=渡辺真知子 - 時の贈り物 渡辺真知子 ベストセレクション SRCL-3407
DYEAR=1900
DGENRE=J ポップ
TTITLE0=カモメが翔んだ日
TTITLE1=メソポタミア・ダンス
TTITLE2=哀愁トラベラー
TTITLE3=愛さずにいられない
TTITLE4=寒い夏
TTITLE5=たかが恋
TTITLE6=ブルー
TTITLE7=アンタ
TTITLE8=バラードが聴こえる
TTITLE9=迷い道
TTITLE10=唇よ、熱く君を語れ
TTITLE11=愛することだけすればよかった
TTITLE12=心の距離
EXTD=
EXTT0=
EXTT1=
EXTT2=
EXTT3=
EXTT4=
EXTT5=
EXTT6=
EXTT7=
EXTT8=
EXTT9=
EXTT10=
EXTT11=
EXTT12=
PLAYORDER=
